<svg width="24" height="24" viewBox="0 0 24 24" fill="none" xmlns="http://www.w3.org/2000/svg">
<path d="M22.5 13.5H18C17.6023 13.4996 17.221 13.3414 16.9398 13.0602C16.6586 12.779 16.5004 12.3977 16.5 12V4.5C16.5004 4.1023 16.6586 3.721 16.9398 3.43978C17.221 3.15856 17.6023 3.0004 18 3H22.5V4.5H18V12H22.5V13.5Z" fill="#006E21"/>
<path d="M13.5 4.5C14.3284 4.5 15 3.82843 15 3C15 2.17157 14.3284 1.5 13.5 1.5C12.6716 1.5 12 2.17157 12 3C12 3.82843 12.6716 4.5 13.5 4.5Z" fill="#006E21"/>
<path d="M7.50001 15.138V9H6V15.138C5.49959 15.3149 5.07784 15.6631 4.80928 16.1209C4.54072 16.5787 4.44265 17.1167 4.53241 17.6398C4.62216 18.1629 4.89396 18.6375 5.29976 18.9796C5.70556 19.3217 6.21924 19.5093 6.75 19.5093C7.28077 19.5093 7.79445 19.3217 8.20025 18.9796C8.60605 18.6375 8.87785 18.1629 8.9676 17.6398C9.05736 17.1167 8.95929 16.5787 8.69073 16.1209C8.42217 15.6631 8.00042 15.3149 7.50001 15.138Z" fill="#006E21"/>
<path d="M6.74992 22.5C5.7164 22.5012 4.70558 22.1969 3.84437 21.6255C2.98317 21.0541 2.30999 20.241 1.90935 19.2883C1.50872 18.3356 1.3985 17.2858 1.59252 16.2706C1.78655 15.2555 2.27617 14.3203 2.99992 13.5825V5.25C2.99992 4.25544 3.39501 3.30161 4.09827 2.59835C4.80153 1.89509 5.75536 1.5 6.74992 1.5C7.74448 1.5 8.69831 1.89509 9.40157 2.59835C10.1048 3.30161 10.4999 4.25544 10.4999 5.25V13.5825C11.2237 14.3203 11.7133 15.2555 11.9073 16.2706C12.1013 17.2858 11.9911 18.3356 11.5905 19.2883C11.1898 20.241 10.5167 21.0541 9.65547 21.6255C8.79426 22.1969 7.78344 22.5012 6.74992 22.5ZM6.74992 3C6.15337 3.0006 5.58142 3.23784 5.15959 3.65967C4.73776 4.0815 4.50052 4.65345 4.49992 5.25V14.2373L4.25092 14.4615C3.68458 14.9677 3.28531 15.6339 3.10596 16.372C2.9266 17.1101 2.97563 17.8853 3.24653 18.5949C3.51744 19.3046 3.99747 19.9152 4.62306 20.346C5.24866 20.7768 5.99034 21.0075 6.74992 21.0075C7.5095 21.0075 8.25118 20.7768 8.87678 20.346C9.50237 19.9152 9.9824 19.3046 10.2533 18.5949C10.5242 17.8853 10.5732 17.1101 10.3939 16.372C10.2145 15.6339 9.81526 14.9677 9.24892 14.4615L8.99992 14.2373V5.25C8.99932 4.65345 8.76208 4.0815 8.34025 3.65967C7.91842 3.23784 7.34647 3.0006 6.74992 3Z" fill="#006E21"/>
</svg>
