<svg width="25" height="24" viewBox="0 0 25 24" fill="none" xmlns="http://www.w3.org/2000/svg">
<path d="M12.3273 3.05085V0.610169C12.3273 0.448342 12.3916 0.293143 12.506 0.178715C12.6205 0.0642855 12.7757 0 12.9375 0C13.0993 0 13.2545 0.0642855 13.369 0.178715C13.4834 0.293143 13.5477 0.448342 13.5477 0.610169V3.05085C13.5477 3.21267 13.4834 3.36787 13.369 3.4823C13.2545 3.59673 13.0993 3.66102 12.9375 3.66102C12.7757 3.66102 12.6205 3.59673 12.506 3.4823C12.3916 3.36787 12.3273 3.21267 12.3273 3.05085ZM19.2426 12C19.2426 13.247 18.8728 14.4661 18.18 15.5029C17.4872 16.5398 16.5025 17.3479 15.3504 17.8251C14.1982 18.3024 12.9305 18.4272 11.7074 18.1839C10.4844 17.9407 9.36091 17.3401 8.47913 16.4584C7.59735 15.5766 6.99685 14.4531 6.75357 13.2301C6.51028 12.007 6.63514 10.7393 7.11236 9.58715C7.58958 8.43504 8.39772 7.45033 9.43458 6.75751C10.4714 6.0647 11.6905 5.69491 12.9375 5.69491C14.6091 5.6968 16.2118 6.36169 17.3938 7.54371C18.5758 8.72574 19.2407 10.3284 19.2426 12ZM18.0222 12C18.0222 10.9943 17.724 10.0112 17.1653 9.17507C16.6066 8.33888 15.8125 7.68716 14.8833 7.30231C13.9542 6.91745 12.9319 6.81676 11.9455 7.01296C10.9592 7.20915 10.0532 7.69343 9.34204 8.40454C8.63093 9.11566 8.14665 10.0217 7.95046 11.008C7.75426 11.9944 7.85495 13.0167 8.23981 13.9458C8.62466 14.875 9.27638 15.6691 10.1126 16.2278C10.9487 16.7865 11.9318 17.0847 12.9375 17.0847C14.2856 17.0831 15.5779 16.5469 16.5312 15.5937C17.4844 14.6404 18.0206 13.3481 18.0222 12ZM5.99784 5.92271C6.0537 5.98266 6.12106 6.03074 6.19591 6.06409C6.27076 6.09744 6.35155 6.11537 6.43348 6.11682C6.51541 6.11827 6.59679 6.10319 6.67277 6.07251C6.74874 6.04182 6.81776 5.99614 6.8757 5.9382C6.93364 5.88026 6.97932 5.81124 7.01001 5.73527C7.04069 5.65929 7.05577 5.57791 7.05432 5.49598C7.05287 5.41405 7.03494 5.33326 7.00159 5.25841C6.96824 5.18356 6.92016 5.1162 6.86021 5.06034L5.23309 3.43322C5.11743 3.32544 4.96444 3.26676 4.80636 3.26955C4.64829 3.27234 4.49747 3.33638 4.38567 3.44817C4.27388 3.55997 4.20984 3.71079 4.20705 3.86886C4.20426 4.02694 4.26294 4.17993 4.37072 4.29559L5.99784 5.92271ZM5.99784 18.0773L4.37072 19.7044C4.31077 19.7603 4.26269 19.8276 4.22934 19.9025C4.19599 19.9773 4.17806 20.0581 4.17661 20.14C4.17517 20.222 4.19024 20.3034 4.22093 20.3793C4.25161 20.4553 4.29729 20.5243 4.35523 20.5823C4.41317 20.6402 4.48219 20.6859 4.55817 20.7166C4.63414 20.7473 4.71552 20.7623 4.79745 20.7609C4.87938 20.7594 4.96018 20.7415 5.03502 20.7082C5.10987 20.6748 5.17723 20.6267 5.23309 20.5668L6.86021 18.9397C6.92016 18.8838 6.96824 18.8164 7.00159 18.7416C7.03494 18.6667 7.05287 18.5859 7.05432 18.504C7.05577 18.4221 7.04069 18.3407 7.01001 18.2647C6.97932 18.1888 6.93364 18.1197 6.8757 18.0618C6.81776 18.0039 6.74874 17.9582 6.67277 17.9275C6.59679 17.8968 6.51541 17.8817 6.43348 17.8832C6.35155 17.8846 6.27076 17.9026 6.19591 17.9359C6.12106 17.9693 6.0537 18.0173 5.99784 18.0773ZM19.446 6.10169C19.6077 6.10155 19.7628 6.03717 19.8772 5.92271L21.5043 4.29559C21.6121 4.17993 21.6707 4.02694 21.6679 3.86886C21.6652 3.71079 21.6011 3.55997 21.4893 3.44817C21.3775 3.33638 21.2267 3.27234 21.0686 3.26955C20.9106 3.26676 20.7576 3.32544 20.6419 3.43322L19.0148 5.06034C18.9296 5.14567 18.8715 5.25434 18.848 5.37263C18.8245 5.49093 18.8366 5.61353 18.8828 5.72495C18.9289 5.83638 19.007 5.93164 19.1073 5.99869C19.2075 6.06575 19.3254 6.10159 19.446 6.10169ZM19.8772 18.0773C19.7615 17.9695 19.6085 17.9108 19.4504 17.9136C19.2924 17.9164 19.1415 17.9804 19.0297 18.0922C18.9179 18.204 18.8539 18.3549 18.8511 18.5129C18.8483 18.671 18.907 18.824 19.0148 18.9397L20.6419 20.5668C20.7576 20.6746 20.9106 20.7332 21.0686 20.7304C21.2267 20.7277 21.3775 20.6636 21.4893 20.5518C21.6011 20.44 21.6652 20.2892 21.6679 20.1311C21.6707 19.9731 21.6121 19.8201 21.5043 19.7044L19.8772 18.0773ZM4.59852 12C4.59852 11.8382 4.53423 11.683 4.4198 11.5685C4.30537 11.4541 4.15017 11.3898 3.98835 11.3898H1.54767C1.38584 11.3898 1.23064 11.4541 1.11621 11.5685C1.00179 11.683 0.9375 11.8382 0.9375 12C0.9375 12.1618 1.00179 12.317 1.11621 12.4315C1.23064 12.5459 1.38584 12.6102 1.54767 12.6102H3.98835C4.15017 12.6102 4.30537 12.5459 4.4198 12.4315C4.53423 12.317 4.59852 12.1618 4.59852 12ZM12.9375 20.339C12.7757 20.339 12.6205 20.4033 12.506 20.5177C12.3916 20.6321 12.3273 20.7873 12.3273 20.9492V23.3898C12.3273 23.5517 12.3916 23.7069 12.506 23.8213C12.6205 23.9357 12.7757 24 12.9375 24C13.0993 24 13.2545 23.9357 13.369 23.8213C13.4834 23.7069 13.5477 23.5517 13.5477 23.3898V20.9492C13.5477 20.7873 13.4834 20.6321 13.369 20.5177C13.2545 20.4033 13.0993 20.339 12.9375 20.339ZM24.3273 11.3898H21.8867C21.7248 11.3898 21.5696 11.4541 21.4552 11.5685C21.3408 11.683 21.2765 11.8382 21.2765 12C21.2765 12.1618 21.3408 12.317 21.4552 12.4315C21.5696 12.5459 21.7248 12.6102 21.8867 12.6102H24.3273C24.4892 12.6102 24.6444 12.5459 24.7588 12.4315C24.8732 12.317 24.9375 12.1618 24.9375 12C24.9375 11.8382 24.8732 11.683 24.7588 11.5685C24.6444 11.4541 24.4892 11.3898 24.3273 11.3898Z" fill="#006E21"/>
</svg>
